# OBJ file building_8_0.4_2_1_5lvl.obj
# 82 vertices
v 0.0000 0.0000 0.0000
v 0.0000 9.6000 0.0000
v 2.0000 0.0000 0.0000
v 1.4142 0.0000 1.4142
v 0.0000 0.0000 2.0000
v -1.4142 0.0000 1.4142
v -2.0000 0.0000 0.0000
v -1.4142 0.0000 -1.4142
v -0.0000 0.0000 -2.0000
v 1.4142 0.0000 -1.4142
v 1.0000 0.4000 0.0000
v 0.7071 0.4000 0.7071
v 0.0000 0.4000 1.0000
v -0.7071 0.4000 0.7071
v -1.0000 0.4000 0.0000
v -0.7071 0.4000 -0.7071
v -0.0000 0.4000 -1.0000
v 0.7071 0.4000 -0.7071
v 1.2000 3.4000 0.0000
v 0.8485 3.4000 0.8485
v 0.0000 3.4000 1.2000
v -0.8485 3.4000 0.8485
v -1.2000 3.4000 0.0000
v -0.8485 3.4000 -0.8485
v -0.0000 3.4000 -1.2000
v 0.8485 3.4000 -0.8485
v 0.9000 3.4000 0.0000
v 0.6364 3.4000 0.6364
v 0.0000 3.4000 0.9000
v -0.6364 3.4000 0.6364
v -0.9000 3.4000 0.0000
v -0.6364 3.4000 -0.6364
v -0.0000 3.4000 -0.9000
v 0.6364 3.4000 -0.6364
v 0.8000 5.4000 0.0000
v 0.5657 5.4000 0.5657
v 0.0000 5.4000 0.8000
v -0.5657 5.4000 0.5657
v -0.8000 5.4000 0.0000
v -0.5657 5.4000 -0.5657
v -0.0000 5.4000 -0.8000
v 0.5657 5.4000 -0.5657
v 1.2000 5.4000 0.0000
v 0.8485 5.4000 0.8485
v 0.0000 5.4000 1.2000
v -0.8485 5.4000 0.8485
v -1.2000 5.4000 0.0000
v -0.8485 5.4000 -0.8485
v -0.0000 5.4000 -1.2000
v 0.8485 5.4000 -0.8485
v 1.8000 6.4000 0.0000
v 1.2728 6.4000 1.2728
v 0.0000 6.4000 1.8000
v -1.2728 6.4000 1.2728
v -1.8000 6.4000 0.0000
v -1.2728 6.4000 -1.2728
v -0.0000 6.4000 -1.8000
v 1.2728 6.4000 -1.2728
v 1.2000 6.6000 0.0000
v 0.8485 6.6000 0.8485
v 0.0000 6.6000 1.2000
v -0.8485 6.6000 0.8485
v -1.2000 6.6000 0.0000
v -0.8485 6.6000 -0.8485
v -0.0000 6.6000 -1.2000
v 0.8485 6.6000 -0.8485
v 0.0500 6.6000 0.0000
v 0.0354 6.6000 0.0354
v 0.0000 6.6000 0.0500
v -0.0354 6.6000 0.0354
v -0.0500 6.6000 0.0000
v -0.0354 6.6000 -0.0354
v -0.0000 6.6000 -0.0500
v 0.0354 6.6000 -0.0354
v 0.0500 9.6000 0.0000
v 0.0354 9.6000 0.0354
v 0.0000 9.6000 0.0500
v -0.0354 9.6000 0.0354
v -0.0500 9.6000 0.0000
v -0.0354 9.6000 -0.0354
v -0.0000 9.6000 -0.0500
v 0.0354 9.6000 -0.0354
# 74 normals
vn 0.0000 -1.0000 0.0000
vn 0.0000 1.0000 0.0000
vn 0.3671 0.9177 0.1520
vn 0.1520 0.9177 0.3671
vn -0.1520 0.9177 0.3671
vn -0.3671 0.9177 0.1520
vn -0.3671 0.9177 -0.1520
vn -0.1520 0.9177 -0.3671
vn 0.1520 0.9177 -0.3671
vn 0.3671 0.9177 -0.1520
vn 0.9221 -0.0615 0.3820
vn 0.3820 -0.0615 0.9221
vn -0.3820 -0.0615 0.9221
vn -0.9221 -0.0615 0.3820
vn -0.9221 -0.0615 -0.3820
vn -0.3820 -0.0615 -0.9221
vn 0.3820 -0.0615 -0.9221
vn 0.9221 -0.0615 -0.3820
vn 0.0000 1.0000 0.0000
vn 0.0000 1.0000 0.0000
vn 0.0000 1.0000 0.0000
vn 0.0000 1.0000 0.0000
vn 0.0000 1.0000 0.0000
vn 0.0000 1.0000 0.0000
vn 0.0000 1.0000 0.0000
vn 0.0000 1.0000 0.0000
vn 0.9229 0.0461 0.3823
vn 0.3823 0.0461 0.9229
vn -0.3823 0.0461 0.9229
vn -0.9229 0.0461 0.3823
vn -0.9229 0.0461 -0.3823
vn -0.3823 0.0461 -0.9229
vn 0.3823 0.0461 -0.9229
vn 0.9229 0.0461 -0.3823
vn 0.0000 -1.0000 0.0000
vn 0.0000 -1.0000 0.0000
vn 0.0000 -1.0000 0.0000
vn 0.0000 -1.0000 0.0000
vn 0.0000 -1.0000 0.0000
vn 0.0000 -1.0000 0.0000
vn 0.0000 -1.0000 0.0000
vn 0.0000 -1.0000 0.0000
vn 0.8080 -0.4848 0.3347
vn 0.3347 -0.4848 0.8080
vn -0.3347 -0.4848 0.8080
vn -0.8080 -0.4848 0.3347
vn -0.8080 -0.4848 -0.3347
vn -0.3347 -0.4848 -0.8080
vn 0.3347 -0.4848 -0.8080
vn 0.8080 -0.4848 -0.3347
vn 0.3135 0.9406 0.1299
vn 0.1299 0.9406 0.3135
vn -0.1299 0.9406 0.3135
vn -0.3135 0.9406 0.1299
vn -0.3135 0.9406 -0.1299
vn -0.1299 0.9406 -0.3135
vn 0.1299 0.9406 -0.3135
vn 0.3135 0.9406 -0.1299
vn 0.0000 1.0000 0.0000
vn 0.0000 1.0000 0.0000
vn 0.0000 1.0000 0.0000
vn 0.0000 1.0000 0.0000
vn 0.0000 1.0000 0.0000
vn 0.0000 1.0000 0.0000
vn 0.0000 1.0000 0.0000
vn 0.0000 1.0000 0.0000
vn 0.9239 0.0000 0.3827
vn 0.3827 0.0000 0.9239
vn -0.3827 0.0000 0.9239
vn -0.9239 0.0000 0.3827
vn -0.9239 0.0000 -0.3827
vn -0.3827 0.0000 -0.9239
vn 0.3827 0.0000 -0.9239
vn 0.9239 0.0000 -0.3827
# 160 faces
f 1//1 3//1 4//1
f 1//1 4//1 5//1
f 1//1 5//1 6//1
f 1//1 6//1 7//1
f 1//1 7//1 8//1
f 1//1 8//1 9//1
f 1//1 9//1 10//1
f 1//1 10//1 3//1
f 2//2 76//2 75//2
f 2//2 77//2 76//2
f 2//2 78//2 77//2
f 2//2 79//2 78//2
f 2//2 80//2 79//2
f 2//2 81//2 80//2
f 2//2 82//2 81//2
f 2//2 75//2 82//2
f 3//3 11//3 4//3
f 4//3 11//3 12//3
f 4//4 12//4 5//4
f 5//4 12//4 13//4
f 5//5 13//5 6//5
f 6//5 13//5 14//5
f 6//6 14//6 7//6
f 7//6 14//6 15//6
f 7//7 15//7 8//7
f 8//7 15//7 16//7
f 8//8 16//8 9//8
f 9//8 16//8 17//8
f 9//9 17//9 10//9
f 10//9 17//9 18//9
f 10//10 18//10 3//10
f 3//10 18//10 11//10
f 11//11 19//11 12//11
f 12//11 19//11 20//11
f 12//12 20//12 13//12
f 13//12 20//12 21//12
f 13//13 21//13 14//13
f 14//13 21//13 22//13
f 14//14 22//14 15//14
f 15//14 22//14 23//14
f 15//15 23//15 16//15
f 16//15 23//15 24//15
f 16//16 24//16 17//16
f 17//16 24//16 25//16
f 17//17 25//17 18//17
f 18//17 25//17 26//17
f 18//18 26//18 11//18
f 11//18 26//18 19//18
f 19//19 27//19 20//19
f 20//19 27//19 28//19
f 20//20 28//20 21//20
f 21//20 28//20 29//20
f 21//21 29//21 22//21
f 22//21 29//21 30//21
f 22//22 30//22 23//22
f 23//22 30//22 31//22
f 23//23 31//23 24//23
f 24//23 31//23 32//23
f 24//24 32//24 25//24
f 25//24 32//24 33//24
f 25//25 33//25 26//25
f 26//25 33//25 34//25
f 26//26 34//26 19//26
f 19//26 34//26 27//26
f 27//27 35//27 28//27
f 28//27 35//27 36//27
f 28//28 36//28 29//28
f 29//28 36//28 37//28
f 29//29 37//29 30//29
f 30//29 37//29 38//29
f 30//30 38//30 31//30
f 31//30 38//30 39//30
f 31//31 39//31 32//31
f 32//31 39//31 40//31
f 32//32 40//32 33//32
f 33//32 40//32 41//32
f 33//33 41//33 34//33
f 34//33 41//33 42//33
f 34//34 42//34 27//34
f 27//34 42//34 35//34
f 35//35 43//35 36//35
f 36//35 43//35 44//35
f 36//36 44//36 37//36
f 37//36 44//36 45//36
f 37//37 45//37 38//37
f 38//37 45//37 46//37
f 38//38 46//38 39//38
f 39//38 46//38 47//38
f 39//39 47//39 40//39
f 40//39 47//39 48//39
f 40//40 48//40 41//40
f 41//40 48//40 49//40
f 41//41 49//41 42//41
f 42//41 49//41 50//41
f 42//42 50//42 35//42
f 35//42 50//42 43//42
f 43//43 51//43 44//43
f 44//43 51//43 52//43
f 44//44 52//44 45//44
f 45//44 52//44 53//44
f 45//45 53//45 46//45
f 46//45 53//45 54//45
f 46//46 54//46 47//46
f 47//46 54//46 55//46
f 47//47 55//47 48//47
f 48//47 55//47 56//47
f 48//48 56//48 49//48
f 49//48 56//48 57//48
f 49//49 57//49 50//49
f 50//49 57//49 58//49
f 50//50 58//50 43//50
f 43//50 58//50 51//50
f 51//51 59//51 52//51
f 52//51 59//51 60//51
f 52//52 60//52 53//52
f 53//52 60//52 61//52
f 53//53 61//53 54//53
f 54//53 61//53 62//53
f 54//54 62//54 55//54
f 55//54 62//54 63//54
f 55//55 63//55 56//55
f 56//55 63//55 64//55
f 56//56 64//56 57//56
f 57//56 64//56 65//56
f 57//57 65//57 58//57
f 58//57 65//57 66//57
f 58//58 66//58 51//58
f 51//58 66//58 59//58
f 59//59 67//59 60//59
f 60//59 67//59 68//59
f 60//60 68//60 61//60
f 61//60 68//60 69//60
f 61//61 69//61 62//61
f 62//61 69//61 70//61
f 62//62 70//62 63//62
f 63//62 70//62 71//62
f 63//63 71//63 64//63
f 64//63 71//63 72//63
f 64//64 72//64 65//64
f 65//64 72//64 73//64
f 65//65 73//65 66//65
f 66//65 73//65 74//65
f 66//66 74//66 59//66
f 59//66 74//66 67//66
f 67//67 75//67 68//67
f 68//67 75//67 76//67
f 68//68 76//68 69//68
f 69//68 76//68 77//68
f 69//69 77//69 70//69
f 70//69 77//69 78//69
f 70//70 78//70 71//70
f 71//70 78//70 79//70
f 71//71 79//71 72//71
f 72//71 79//71 80//71
f 72//72 80//72 73//72
f 73//72 80//72 81//72
f 73//73 81//73 74//73
f 74//73 81//73 82//73
f 74//74 82//74 67//74
f 67//74 82//74 75//74