# OBJ file building_6_10_6_5.5_6lvl.obj
# 74 vertices
v 0.0000 0.0000 0.0000
v 0.0000 46.0000 0.0000
v 6.0000 0.0000 0.0000
v 3.0000 0.0000 5.1962
v -3.0000 0.0000 5.1962
v -6.0000 0.0000 0.0000
v -3.0000 0.0000 -5.1962
v 3.0000 0.0000 -5.1962
v 5.5000 10.0000 0.0000
v 2.7500 10.0000 4.7631
v -2.7500 10.0000 4.7631
v -5.5000 10.0000 0.0000
v -2.7500 10.0000 -4.7631
v 2.7500 10.0000 -4.7631
v 4.5000 10.0000 0.0000
v 2.2500 10.0000 3.8971
v -2.2500 10.0000 3.8971
v -4.5000 10.0000 0.0000
v -2.2500 10.0000 -3.8971
v 2.2500 10.0000 -3.8971
v 4.0000 19.0000 0.0000
v 2.0000 19.0000 3.4641
v -2.0000 19.0000 3.4641
v -4.0000 19.0000 0.0000
v -2.0000 19.0000 -3.4641
v 2.0000 19.0000 -3.4641
v 3.0000 19.0000 0.0000
v 1.5000 19.0000 2.5981
v -1.5000 19.0000 2.5981
v -3.0000 19.0000 0.0000
v -1.5000 19.0000 -2.5981
v 1.5000 19.0000 -2.5981
v 2.5000 27.0000 0.0000
v 1.2500 27.0000 2.1651
v -1.2500 27.0000 2.1651
v -2.5000 27.0000 0.0000
v -1.2500 27.0000 -2.1651
v 1.2500 27.0000 -2.1651
v 1.5000 27.0000 0.0000
v 0.7500 27.0000 1.2990
v -0.7500 27.0000 1.2990
v -1.5000 27.0000 0.0000
v -0.7500 27.0000 -1.2990
v 0.7500 27.0000 -1.2990
v 1.0000 34.0000 0.0000
v 0.5000 34.0000 0.8660
v -0.5000 34.0000 0.8660
v -1.0000 34.0000 0.0000
v -0.5000 34.0000 -0.8660
v 0.5000 34.0000 -0.8660
v 0.0500 34.0000 0.0000
v 0.0250 34.0000 0.0433
v -0.0250 34.0000 0.0433
v -0.0500 34.0000 0.0000
v -0.0250 34.0000 -0.0433
v 0.0250 34.0000 -0.0433
v 0.0500 44.0000 0.0000
v 0.0250 44.0000 0.0433
v -0.0250 44.0000 0.0433
v -0.0500 44.0000 0.0000
v -0.0250 44.0000 -0.0433
v 0.0250 44.0000 -0.0433
v 1.0000 45.0000 0.0000
v 0.5000 45.0000 0.8660
v -0.5000 45.0000 0.8660
v -1.0000 45.0000 0.0000
v -0.5000 45.0000 -0.8660
v 0.5000 45.0000 -0.8660
v 0.0500 46.0000 0.0000
v 0.0250 46.0000 0.0433
v -0.0250 46.0000 0.0433
v -0.0500 46.0000 0.0000
v -0.0250 46.0000 -0.0433
v 0.0250 46.0000 -0.0433
# 68 normals
vn 0.0000 -1.0000 0.0000
vn 0.0000 1.0000 0.0000
vn 0.8652 0.0433 0.4995
vn 0.0000 0.0433 0.9991
vn -0.8652 0.0433 0.4995
vn -0.8652 0.0433 -0.4995
vn -0.0000 0.0433 -0.9991
vn 0.8652 0.0433 -0.4995
vn 0.0000 1.0000 0.0000
vn 0.0000 1.0000 0.0000
vn 0.0000 1.0000 0.0000
vn 0.0000 1.0000 0.0000
vn 0.0000 1.0000 0.0000
vn 0.0000 1.0000 0.0000
vn 0.8650 0.0481 0.4994
vn 0.0000 0.0481 0.9988
vn -0.8650 0.0481 0.4994
vn -0.8650 0.0481 -0.4994
vn -0.0000 0.0481 -0.9988
vn 0.8650 0.0481 -0.4994
vn 0.0000 1.0000 0.0000
vn 0.0000 1.0000 0.0000
vn 0.0000 1.0000 0.0000
vn 0.0000 1.0000 0.0000
vn 0.0000 1.0000 0.0000
vn 0.0000 1.0000 0.0000
vn 0.8648 0.0540 0.4993
vn 0.0000 0.0540 0.9985
vn -0.8648 0.0540 0.4993
vn -0.8648 0.0540 -0.4993
vn -0.0000 0.0540 -0.9985
vn 0.8648 0.0540 -0.4993
vn 0.0000 1.0000 0.0000
vn 0.0000 1.0000 0.0000
vn 0.0000 1.0000 0.0000
vn 0.0000 1.0000 0.0000
vn 0.0000 1.0000 0.0000
vn 0.0000 1.0000 0.0000
vn 0.8644 0.0617 0.4990
vn 0.0000 0.0617 0.9981
vn -0.8644 0.0617 0.4990
vn -0.8644 0.0617 -0.4990
vn -0.0000 0.0617 -0.9981
vn 0.8644 0.0617 -0.4990
vn 0.0000 1.0000 0.0000
vn 0.0000 1.0000 0.0000
vn 0.0000 1.0000 0.0000
vn 0.0000 1.0000 0.0000
vn 0.0000 1.0000 0.0000
vn 0.0000 1.0000 0.0000
vn 0.8660 0.0000 0.5000
vn 0.0000 0.0000 1.0000
vn -0.8660 0.0000 0.5000
vn -0.8660 0.0000 -0.5000
vn -0.0000 0.0000 -1.0000
vn 0.8660 0.0000 -0.5000
vn 0.6688 -0.6353 0.3861
vn 0.0000 -0.6353 0.7722
vn -0.6688 -0.6353 0.3861
vn -0.6688 -0.6353 -0.3861
vn -0.0000 -0.6353 -0.7722
vn 0.6688 -0.6353 -0.3861
vn 0.6688 0.6353 0.3861
vn 0.0000 0.6353 0.7722
vn -0.6688 0.6353 0.3861
vn -0.6688 0.6353 -0.3861
vn -0.0000 0.6353 -0.7722
vn 0.6688 0.6353 -0.3861
# 144 faces
f 1//1 3//1 4//1
f 1//1 4//1 5//1
f 1//1 5//1 6//1
f 1//1 6//1 7//1
f 1//1 7//1 8//1
f 1//1 8//1 3//1
f 2//2 70//2 69//2
f 2//2 71//2 70//2
f 2//2 72//2 71//2
f 2//2 73//2 72//2
f 2//2 74//2 73//2
f 2//2 69//2 74//2
f 3//3 9//3 4//3
f 4//3 9//3 10//3
f 4//4 10//4 5//4
f 5//4 10//4 11//4
f 5//5 11//5 6//5
f 6//5 11//5 12//5
f 6//6 12//6 7//6
f 7//6 12//6 13//6
f 7//7 13//7 8//7
f 8//7 13//7 14//7
f 8//8 14//8 3//8
f 3//8 14//8 9//8
f 9//9 15//9 10//9
f 10//9 15//9 16//9
f 10//10 16//10 11//10
f 11//10 16//10 17//10
f 11//11 17//11 12//11
f 12//11 17//11 18//11
f 12//12 18//12 13//12
f 13//12 18//12 19//12
f 13//13 19//13 14//13
f 14//13 19//13 20//13
f 14//14 20//14 9//14
f 9//14 20//14 15//14
f 15//15 21//15 16//15
f 16//15 21//15 22//15
f 16//16 22//16 17//16
f 17//16 22//16 23//16
f 17//17 23//17 18//17
f 18//17 23//17 24//17
f 18//18 24//18 19//18
f 19//18 24//18 25//18
f 19//19 25//19 20//19
f 20//19 25//19 26//19
f 20//20 26//20 15//20
f 15//20 26//20 21//20
f 21//21 27//21 22//21
f 22//21 27//21 28//21
f 22//22 28//22 23//22
f 23//22 28//22 29//22
f 23//23 29//23 24//23
f 24//23 29//23 30//23
f 24//24 30//24 25//24
f 25//24 30//24 31//24
f 25//25 31//25 26//25
f 26//25 31//25 32//25
f 26//26 32//26 21//26
f 21//26 32//26 27//26
f 27//27 33//27 28//27
f 28//27 33//27 34//27
f 28//28 34//28 29//28
f 29//28 34//28 35//28
f 29//29 35//29 30//29
f 30//29 35//29 36//29
f 30//30 36//30 31//30
f 31//30 36//30 37//30
f 31//31 37//31 32//31
f 32//31 37//31 38//31
f 32//32 38//32 27//32
f 27//32 38//32 33//32
f 33//33 39//33 34//33
f 34//33 39//33 40//33
f 34//34 40//34 35//34
f 35//34 40//34 41//34
f 35//35 41//35 36//35
f 36//35 41//35 42//35
f 36//36 42//36 37//36
f 37//36 42//36 43//36
f 37//37 43//37 38//37
f 38//37 43//37 44//37
f 38//38 44//38 33//38
f 33//38 44//38 39//38
f 39//39 45//39 40//39
f 40//39 45//39 46//39
f 40//40 46//40 41//40
f 41//40 46//40 47//40
f 41//41 47//41 42//41
f 42//41 47//41 48//41
f 42//42 48//42 43//42
f 43//42 48//42 49//42
f 43//43 49//43 44//43
f 44//43 49//43 50//43
f 44//44 50//44 39//44
f 39//44 50//44 45//44
f 45//45 51//45 46//45
f 46//45 51//45 52//45
f 46//46 52//46 47//46
f 47//46 52//46 53//46
f 47//47 53//47 48//47
f 48//47 53//47 54//47
f 48//48 54//48 49//48
f 49//48 54//48 55//48
f 49//49 55//49 50//49
f 50//49 55//49 56//49
f 50//50 56//50 45//50
f 45//50 56//50 51//50
f 51//51 57//51 52//51
f 52//51 57//51 58//51
f 52//52 58//52 53//52
f 53//52 58//52 59//52
f 53//53 59//53 54//53
f 54//53 59//53 60//53
f 54//54 60//54 55//54
f 55//54 60//54 61//54
f 55//55 61//55 56//55
f 56//55 61//55 62//55
f 56//56 62//56 51//56
f 51//56 62//56 57//56
f 57//57 63//57 58//57
f 58//57 63//57 64//57
f 58//58 64//58 59//58
f 59//58 64//58 65//58
f 59//59 65//59 60//59
f 60//59 65//59 66//59
f 60//60 66//60 61//60
f 61//60 66//60 67//60
f 61//61 67//61 62//61
f 62//61 67//61 68//61
f 62//62 68//62 57//62
f 57//62 68//62 63//62
f 63//63 69//63 64//63
f 64//63 69//63 70//63
f 64//64 70//64 65//64
f 65//64 70//64 71//64
f 65//65 71//65 66//65
f 66//65 71//65 72//65
f 66//66 72//66 67//66
f 67//66 72//66 73//66
f 67//67 73//67 68//67
f 68//67 73//67 74//67
f 68//68 74//68 63//68
f 63//68 74//68 69//68